<?xml version="1.0" standalone="no"?><svg xmlns="http://www.w3.org/2000/svg" viewBox="0 0 1440 320"><path fill="#01b4e4" fill-opacity="1" d="M0,128L20,144C40,160,80,192,120,208C160,224,200,224,240,229.3C280,235,320,245,360,234.7C400,224,440,192,480,192C520,192,560,224,600,202.7C640,181,680,107,720,117.3C760,128,800,224,840,250.7C880,277,920,235,960,229.3C1000,224,1040,256,1080,250.7C1120,245,1160,203,1200,186.7C1240,171,1280,181,1320,176C1360,171,1400,149,1420,138.7L1440,128L1440,320L1420,320C1400,320,1360,320,1320,320C1280,320,1240,320,1200,320C1160,320,1120,320,1080,320C1040,320,1000,320,960,320C920,320,880,320,840,320C800,320,760,320,720,320C680,320,640,320,600,320C560,320,520,320,480,320C440,320,400,320,360,320C320,320,280,320,240,320C200,320,160,320,120,320C80,320,40,320,20,320L0,320Z"></path></svg>